<?xml version="1.0" standalone="no"?>
<!DOCTYPE svg PUBLIC "-//W3C//DTD SVG 20010904//EN"
 "http://www.w3.org/TR/2001/REC-SVG-20010904/DTD/svg10.dtd">
<svg version="1.0" xmlns="http://www.w3.org/2000/svg"
 width="700.000000pt" height="700.000000pt" viewBox="0 0 700.000000 700.000000"
 preserveAspectRatio="xMidYMid meet">
<metadata>
Created by potrace 1.11, written by Peter Selinger 2001-2013
</metadata>
<g transform="translate(0.000000,700.000000) scale(0.100000,-0.100000)"
fill="#000000" stroke="none">
<path d="M1141 6970 c-193 -92 -426 -449 -566 -865 -28 -83 -81 -282 -90 -338
-3 -18 -10 -57 -15 -87 -5 -30 -12 -71 -15 -90 -11 -59 -13 -381 -3 -455 5
-38 16 -97 24 -130 9 -33 18 -70 20 -82 7 -36 70 -168 102 -215 47 -69 132
-145 223 -201 105 -64 161 -115 211 -192 82 -126 96 -236 63 -513 -2 -20 -7
-66 -10 -102 -3 -36 -8 -81 -10 -100 -3 -19 -7 -66 -10 -105 -2 -38 -7 -85 -9
-105 -5 -33 -14 -119 -21 -200 -6 -63 -17 -185 -20 -210 -1 -14 -5 -59 -9
-100 -4 -41 -9 -86 -11 -100 -2 -14 -7 -59 -10 -100 -4 -41 -8 -86 -10 -100
-2 -14 -6 -59 -10 -100 -3 -41 -8 -91 -10 -110 -2 -19 -7 -69 -10 -110 -3 -41
-8 -82 -10 -90 -2 -8 -7 -55 -10 -104 -4 -50 -8 -97 -10 -105 -1 -9 -6 -52
-10 -96 -4 -44 -9 -91 -10 -105 -1 -14 -6 -59 -9 -100 -4 -41 -9 -86 -11 -100
-2 -14 -7 -63 -10 -108 -4 -46 -8 -92 -10 -101 -2 -10 -6 -53 -9 -97 -3 -43
-8 -95 -11 -114 -2 -19 -7 -62 -10 -95 -3 -33 -8 -82 -11 -110 -7 -73 -12
-121 -19 -200 -3 -38 -8 -88 -11 -110 -12 -87 -11 -199 2 -257 52 -222 252
-373 482 -364 133 5 246 57 333 154 71 79 129 230 124 322 -3 45 -16 184 -19
215 -2 17 -7 64 -11 105 -4 41 -9 86 -10 100 -2 14 -7 61 -10 105 -9 95 -11
111 -19 193 -3 34 -9 90 -12 125 -9 87 -10 102 -18 192 -4 44 -9 91 -11 105
-2 14 -6 57 -10 95 -3 39 -8 88 -10 110 -9 73 -14 129 -20 200 -3 39 -7 88
-10 110 -3 22 -7 67 -10 100 -8 88 -15 155 -20 195 -2 19 -7 69 -10 110 -3 41
-8 82 -10 90 -2 8 -6 53 -10 100 -3 47 -8 99 -10 115 -3 17 -7 62 -10 100 -3
39 -8 84 -10 100 -2 17 -7 62 -10 100 -4 39 -8 84 -10 100 -2 17 -7 66 -10
109 -4 43 -8 86 -10 95 -1 9 -6 54 -10 101 -3 47 -8 96 -10 110 -1 14 -6 59
-10 100 -3 41 -8 89 -10 105 -3 17 -7 67 -10 113 -5 73 -2 105 19 212 11 52
73 154 127 209 31 31 93 78 138 105 230 136 345 338 378 666 13 123 7 349 -12
470 -77 501 -294 997 -538 1231 -78 75 -159 118 -234 125 -50 4 -67 1 -122
-26z"/>
<path d="M2902 6986 c-12 -6 -30 -27 -40 -46 -16 -34 -17 -93 -16 -895 2 -473
5 -869 7 -880 3 -11 8 -45 12 -75 33 -260 161 -463 365 -584 143 -85 239 -203
275 -338 13 -50 14 -269 2 -323 -3 -11 -8 -56 -12 -100 -3 -44 -8 -93 -10
-110 -2 -16 -7 -66 -10 -109 -4 -43 -8 -86 -10 -95 -1 -9 -6 -54 -10 -101 -4
-47 -9 -101 -11 -120 -2 -19 -6 -57 -9 -85 -2 -27 -7 -72 -10 -100 -7 -64 -13
-122 -21 -210 -3 -38 -8 -81 -9 -95 -2 -14 -6 -59 -9 -100 -4 -41 -8 -91 -11
-110 -3 -19 -7 -62 -10 -95 -3 -33 -7 -78 -9 -100 -3 -22 -7 -74 -11 -115 -4
-41 -9 -86 -10 -100 -1 -14 -6 -54 -9 -90 -3 -36 -8 -83 -10 -105 -3 -22 -7
-69 -11 -105 -3 -36 -8 -81 -10 -100 -2 -19 -7 -73 -10 -120 -4 -47 -9 -92
-10 -100 -2 -8 -6 -49 -10 -90 -3 -41 -8 -86 -10 -100 -2 -14 -6 -61 -10 -104
-4 -43 -8 -86 -10 -95 -1 -9 -6 -56 -10 -105 -4 -50 -8 -97 -10 -105 -1 -9 -6
-52 -10 -96 -5 -44 -9 -91 -11 -105 -1 -14 -5 -77 -9 -140 -12 -181 26 -290
136 -400 90 -90 204 -137 328 -138 227 -1 405 138 467 363 13 46 13 232 0 290
-2 11 -7 58 -11 104 -4 47 -8 93 -10 103 -2 10 -6 53 -9 96 -4 42 -8 88 -10
102 -3 14 -7 65 -11 114 -3 50 -8 92 -9 95 -2 3 -6 44 -10 91 -4 47 -8 99 -10
115 -2 17 -7 62 -11 100 -6 68 -10 108 -20 198 -2 23 -7 71 -10 107 -13 154
-20 222 -31 317 -2 23 -7 68 -9 100 -3 32 -7 78 -10 103 -2 25 -7 70 -10 100
-12 118 -25 253 -30 300 -2 19 -6 67 -10 105 -3 39 -10 108 -15 155 -5 47 -12
119 -16 160 -3 41 -7 89 -9 105 -4 30 -12 105 -21 205 -2 30 -7 71 -9 90 -2
19 -7 64 -10 100 -3 36 -8 83 -11 105 -13 101 -13 303 0 347 42 139 136 253
278 337 226 134 319 299 374 661 10 64 12 1709 2 1746 -23 89 -141 109 -197
33 l-23 -31 -2 -752 c-1 -628 -3 -754 -15 -772 -42 -63 -134 -70 -183 -14 -16
16 -29 38 -29 48 -1 9 -2 348 -3 752 l-1 735 -23 32 c-46 65 -144 65 -189 1
l-23 -32 0 -739 c0 -793 0 -786 -51 -818 -57 -35 -135 -15 -165 42 -14 28 -16
114 -17 780 l-2 749 -33 32 c-28 29 -39 33 -82 32 -42 0 -54 -5 -80 -32 -16
-18 -31 -42 -31 -54 -1 -13 -3 -342 -4 -733 -1 -390 -3 -722 -4 -737 -3 -72
-104 -121 -170 -82 -63 37 -61 9 -61 814 0 812 2 782 -65 814 -37 18 -70 19
-103 2z"/>
<path d="M6118 6979 c-23 -12 -45 -34 -57 -57 -15 -29 -89 -268 -106 -342 -2
-8 -58 -204 -125 -435 -67 -231 -133 -463 -147 -515 -13 -52 -27 -98 -29 -102
-3 -4 -7 -16 -9 -25 -2 -10 -20 -73 -39 -141 -69 -237 -89 -327 -103 -462 -12
-121 -6 -335 13 -433 42 -222 83 -346 171 -518 95 -186 147 -247 214 -252 19
-1 20 -6 14 -72 -4 -38 -8 -81 -10 -95 -2 -14 -7 -59 -10 -100 -3 -41 -8 -88
-9 -105 -2 -16 -7 -61 -10 -100 -4 -38 -9 -90 -12 -115 -8 -79 -13 -133 -19
-195 -3 -33 -7 -80 -10 -105 -5 -49 -22 -224 -30 -305 -13 -136 -16 -163 -20
-205 -3 -25 -7 -70 -10 -100 -3 -30 -7 -75 -10 -100 -2 -25 -7 -72 -10 -105
-3 -33 -10 -103 -15 -155 -5 -52 -12 -126 -15 -165 -3 -38 -8 -81 -10 -95 -2
-14 -7 -59 -10 -100 -4 -41 -8 -86 -10 -100 -2 -14 -7 -59 -10 -100 -3 -41 -8
-86 -10 -100 -2 -14 -6 -56 -9 -95 -8 -82 -16 -170 -21 -205 -2 -14 -7 -65
-11 -115 -3 -49 -8 -99 -10 -110 -13 -67 -15 -229 -4 -277 38 -163 154 -295
308 -351 72 -25 199 -31 272 -12 175 46 314 191 351 364 10 48 7 223 -5 288
-2 10 -7 56 -11 103 -3 47 -8 96 -10 110 -2 14 -6 54 -10 90 -13 134 -15 156
-21 210 -3 30 -7 77 -9 105 -2 27 -7 70 -9 95 -9 71 -15 138 -32 315 -13 144
-16 174 -19 205 -3 19 -7 64 -10 100 -3 36 -8 79 -10 95 -2 17 -7 64 -10 105
-4 41 -9 86 -10 100 -2 14 -7 66 -10 115 -4 50 -9 93 -11 96 -1 3 -6 45 -9 95
-3 49 -8 96 -10 104 -2 8 -7 53 -10 100 -4 47 -8 96 -10 110 -4 32 -15 133
-20 190 -3 39 -10 111 -20 210 -1 14 -6 61 -10 105 -4 44 -9 87 -10 95 -2 8
-6 52 -10 98 -6 77 -6 82 13 82 10 0 27 9 38 21 18 21 19 63 21 1593 3 1478 2
1573 -15 1605 -36 72 -121 98 -194 60z"/>
</g>
</svg>
